<?xml version="1.0" encoding="iso-8859-1"?>
<!-- Generator: Adobe Illustrator 16.0.0, SVG Export Plug-In . SVG Version: 6.00 Build 0)  -->
<!DOCTYPE svg PUBLIC "-//W3C//DTD SVG 1.1//EN" "http://www.w3.org/Graphics/SVG/1.1/DTD/svg11.dtd">
<svg xmlns="http://www.w3.org/2000/svg" xmlns:xlink="http://www.w3.org/1999/xlink" version="1.1" id="Capa_1" x="0px" y="0px" width="512px" height="512px" viewBox="0 0 441.344 441.343" style="enable-background:new 0 0 441.344 441.343;" xml:space="preserve">
<g>
	<g>
		<path d="M342.095,233.385l-12.276-9.411l-18.024-67.001l-18.024,67.001l-12.276,9.411h-45.572l-27.77,103.228l-24.555-0.002    l-48.291-179.623l-18.02,66.986l-12.278,9.411H19.18c53.671,115.429,201.491,190.279,201.491,190.279    s147.82-74.853,201.491-190.279H342.095z" fill="#cc2f1f"/>
		<path d="M95.261,207.958l27.77-103.228l24.555,0.002l48.291,179.624l18.02-66.985l12.278-9.411h45.571l27.77-103.228h24.556    l27.771,103.228h80.318c5.846-18.177,9.184-37.21,9.184-56.989c0-73.615-57.008-133.29-127.328-133.29    c-36.879,0-70.09,16.419-93.344,42.648c-23.252-26.229-56.465-42.648-93.344-42.648C57.008,17.679,0,77.354,0,150.969    c0,19.779,3.338,38.813,9.184,56.989L95.261,207.958L95.261,207.958z" fill="#cc2f1f"/>
	</g>
</g>
<g>
</g>
<g>
</g>
<g>
</g>
<g>
</g>
<g>
</g>
<g>
</g>
<g>
</g>
<g>
</g>
<g>
</g>
<g>
</g>
<g>
</g>
<g>
</g>
<g>
</g>
<g>
</g>
<g>
</g>
</svg>
