<?xml version="1.0" encoding="iso-8859-1"?>
<!-- Generator: Adobe Illustrator 16.0.0, SVG Export Plug-In . SVG Version: 6.00 Build 0)  -->
<!DOCTYPE svg PUBLIC "-//W3C//DTD SVG 1.1//EN" "http://www.w3.org/Graphics/SVG/1.1/DTD/svg11.dtd">
<svg xmlns="http://www.w3.org/2000/svg" xmlns:xlink="http://www.w3.org/1999/xlink" version="1.1" id="Capa_1" x="0px" y="0px" width="512px" height="512px" viewBox="0 0 118.624 118.624" style="enable-background:new 0 0 118.624 118.624;" xml:space="preserve">
<g>
	<path d="M45.192,24.437v15.297H29.896c-1.546,0-2.802,1.256-2.802,2.802V65.17c0,1.554,1.256,2.802,2.802,2.802h15.296v15.294   c0,1.537,1.256,2.802,2.802,2.802h22.638c1.537,0,2.802-1.265,2.802-2.802V67.972h15.288c1.549,0,2.802-1.248,2.802-2.802V42.535   c0-1.546-1.253-2.802-2.802-2.802H73.434V24.437c0-1.545-1.265-2.801-2.802-2.801H47.994   C46.448,21.636,45.192,22.891,45.192,24.437z M50.796,42.541V27.244H67.83v15.297c0,1.549,1.253,2.801,2.802,2.801H85.92V62.38   H70.632c-1.549,0-2.802,1.253-2.802,2.802V80.47H50.796V65.182c0-1.549-1.256-2.802-2.802-2.802H32.698V45.342h15.296   C49.546,45.342,50.796,44.095,50.796,42.541z M117.179,15.288C100.021,5.829,80.017,0.83,59.312,0.83   c-20.708,0-40.72,5.005-57.865,14.458c-0.958,0.531-1.52,1.567-1.44,2.667c3.182,42.876,24.825,80.058,57.889,99.462   c0.439,0.262,0.93,0.377,1.416,0.377c0.489,0,0.98-0.115,1.418-0.377c33.064-19.404,54.717-56.597,57.886-99.467   C118.697,16.845,118.136,15.807,117.179,15.288z M59.312,111.726C29.094,93.309,9.199,58.992,5.74,19.329   C21.705,10.876,40.178,6.422,59.312,6.422c19.122,0,37.602,4.454,53.574,12.906C109.434,58.992,89.543,93.301,59.312,111.726z" fill="#cc2f1f"/>
</g>
<g>
</g>
<g>
</g>
<g>
</g>
<g>
</g>
<g>
</g>
<g>
</g>
<g>
</g>
<g>
</g>
<g>
</g>
<g>
</g>
<g>
</g>
<g>
</g>
<g>
</g>
<g>
</g>
<g>
</g>
</svg>
